#!OML:ASF E:\acrobat2\Project_11_07_03\Capture day 1\Session 1\Acrobat.ASF
:FULLY-SPECIFIED
:DEGREES
269
root 3.60158 28.1729 -31.149 10.4379 5.0375 -1.71995
lowerback 1.91663 0.405191 -0.0534671
upperback 2.84783 0.552207 -0.787989
thorax 1.85134 0.284454 -0.778974
lowerneck -1.06939 -0.88059 -2.07475
upperneck 16.768 -1.62187 3.92268
head 5.25664 -0.666289 1.49146
rclavicle 1.12313e-014 4.37326e-015
rhumerus -40.0873 -6.3919 -78.5004
rradius 35.6003
rwrist 7.13636
rhand 1.77674 -20.1371
rfingers 7.12502
rthumb 27.2911 -48.182
lclavicle 1.12313e-014 4.37326e-015
lhumerus -29.213 -11.4744 69.9372
lradius 47.2532
lwrist 7.59081
lhand -10.7221 -18.2087
lfingers 7.12502
lthumb 15.2882 11.2062
rfemur -9.36707 -0.733256 21.6241
rtibia 23.0062
rfoot -17.0076 -8.41816
rtoes -18.1585
lfemur -19.1233 -5.76719 -14.8698
ltibia 18.9293
lfoot 1.00165 -2.12324
ltoes 25.741
270
root 3.59957 28.1615 -31.1079 10.4971 5.27703 -1.56575
lowerback 1.94538 0.482403 0.0873014
upperback 2.7833 0.656364 -0.861203
thorax 1.77283 0.339771 -0.933724
lowerneck -0.884016 -0.981683 -2.22306
upperneck 16.661 -1.75545 3.98428
head 5.19777 -0.738351 1.52949
rclavicle -3.24019e-014 1.23246e-014
rhumerus -40.3284 -6.66863 -78.2121
rradius 35.4152
rwrist 6.75258
rhand 1.25698 -19.643
rfingers 7.12502
rthumb 26.7938 -47.7652
lclavicle -3.24019e-014 1.23246e-014
lhumerus -29.288 -11.518 70.106
lradius 47.3395
lwrist 7.75234
lhand -10.587 -18.2551
lfingers 7.12502
lthumb 15.4183 11.1499
rfemur -8.77117 -0.459066 21.6901
rtibia 21.6727
rfoot -17.4884 -8.68205
rtoes -19.5534
lfemur -19.4289 -5.95956 -14.6933
ltibia 18.5653
lfoot 1.83149 -1.39145
ltoes 25.9215
271
root 3.5998 28.1489 -31.0662 10.5414 5.42448 -1.42081
lowerback 1.99642 0.617548 0.29249
upperback 2.71188 0.838536 -0.967669
thorax 1.67871 0.435306 -1.15952
lowerneck -0.69732 -1.10848 -2.32627
upperneck 16.5837 -1.92737 4.04511
head 5.14924 -0.826142 1.5583
rclavicle -8.44835e-015 -1.98785e-015
rhumerus -40.5937 -7.03187 -77.9138
rradius 35.1973
rwrist 6.38214
rhand 0.679052 -18.9892
rfingers 7.12502
rthumb 26.2406 -47.1948
lclavicle -8.44835e-015 -1.98785e-015
lhumerus -29.3644 -11.6831 70.2859
lradius 47.4525
lwrist 7.97791
lhand -10.5252 -18.1846
lfingers 7.12502
lthumb 15.4778 11.2158
rfemur -8.21044 -0.263895 21.7429
rtibia 20.2999
rfoot -17.9919 -8.85102
rtoes -21.0894
lfemur -19.673 -6.11027 -14.5043
ltibia 18.1276
lfoot 2.6197 -0.602045
ltoes 25.9652
272
root 3.6023 28.1355 -31.0237 10.5609 5.49415 -1.29906
lowerback 2.05686 0.722978 0.480308
upperback 2.75324 0.981208 -1.0076
thorax 1.69468 0.510762 -1.3069
lowerneck -0.904511 -1.19187 -2.56167
upperneck 16.6238 -2.02703 4.07383
head 5.20263 -0.883618 1.60087
rclavicle 5.86415e-015 4.77083e-015
rhumerus -40.5393 -7.18298 -77.6292
rradius 34.8952
rwrist 5.98704
rhand 0.0749236 -18.2851
rfingers 7.12502
rthumb 25.6621 -46.5755
lclavicle 5.86415e-015 4.77083e-015
lhumerus -29.3227 -11.5655 70.4999
lradius 47.574
lwrist 8.16644
lhand -10.5724 -18.0339
lfingers 7.12502
lthumb 15.4324 11.37
rfemur -7.68374 -0.165758 21.8032
rtibia 18.917
rfoot -18.4696 -8.93729
rtoes -22.6517
lfemur -19.8441 -6.21654 -14.2914
ltibia 17.634
lfoot 3.35494 0.198221
ltoes 25.7604
273
root 3.60675 28.1217 -30.9812 10.5676 5.49638 -1.21193
lowerback 2.1065 0.827544 0.688029
upperback 2.82043 1.1227 -1.00982
thorax 1.74402 0.586 -1.42648
lowerneck -1.15938 -1.25827 -2.84926
upperneck 16.6947 -2.09572 4.07734
head 5.27326 -0.930073 1.64544
rclavicle 1.13307e-014 -2.50469e-014
rhumerus -40.391 -7.20617 -77.3407
rradius 34.542
rwrist 5.59902
rhand -0.342039 -17.9955
rfingers 7.12502
rthumb 25.2627 -46.3429
lclavicle 1.13307e-014 -2.50469e-014
lhumerus -29.3201 -11.3306 70.7588
lradius 47.7364
lwrist 8.28935
lhand -10.7465 -17.8459
lfingers 7.12502
lthumb 15.2647 11.5708
rfemur -7.23431 -0.15851 21.8933
rtibia 17.612
rfoot -18.9088 -8.96309
rtoes -24.0796
lfemur -19.9647 -6.27094 -14.0432
ltibia 17.1209
lfoot 4.02586 0.963977
ltoes 25.5174
274
root 3.61253 28.1074 -30.9398 10.5775 5.45791 -1.15504
lowerback 2.13658 0.923942 0.915796
upperback 2.91311 1.25317 -0.981178
thorax 1.83102 0.656355 -1.52495
lowerneck -1.48302 -1.31174 -3.17966
upperneck 16.7993 -2.14038 4.07126
head 5.36597 -0.967335 1.69494
rclavicle 1.48095e-014 9.93923e-015
rhumerus -40.1358 -7.13135 -77.0517
rradius 34.1377
rwrist 5.24194
rhand -0.539496 -18.1695
rfingers 7.12502
rthumb 25.0735 -46.5435
lclavicle 1.48095e-014 9.93923e-015
lhumerus -29.3407 -10.9861 71.0431
lradius 47.9221
lwrist 8.33325
lhand -10.9437 -17.8093
lfingers 7.12502
lthumb 15.0747 11.6218
rfemur -6.89811 -0.227149 22.021
rtibia 16.4597
rfoot -19.3323 -8.96501
rtoes -25.2105
lfemur -20.0729 -6.27307 -13.7659
ltibia 16.6465
lfoot 4.60475 1.64096
ltoes 25.6527
275
root 3.61874 28.0931 -30.9005 10.5926 5.39957 -1.11589
lowerback 2.17305 1.01673 1.16456
upperback 2.98901 1.37873 -0.943588
thorax 1.89829 0.724633 -1.62614
lowerneck -1.75997 -1.35855 -3.51828
upperneck 16.9122 -2.17506 4.07105
head 5.45346 -1.00065 1.74843
rclavicle -6.16232e-015 1.68967e-014
rhumerus -39.8667 -7.0061 -76.7614
rradius 33.6987
rwrist 4.94234
rhand -0.684961 -18.3749
rfingers 7.12502
rthumb 24.9341 -46.7683
lclavicle -6.16232e-015 1.68967e-014
lhumerus -29.4361 -10.604 71.3382
lradius 48.1164
lwrist 8.3025
lhand -11.1273 -17.9109
lfingers 7.12502
lthumb 14.8979 11.5334
rfemur -6.67508 -0.342958 22.1864
rtibia 15.484
rfoot -19.7548 -8.999
rtoes -25.9598
lfemur -20.1853 -6.2135 -13.4786
ltibia 16.2334
lfoot 5.07366 2.18945
ltoes 26.4717
276
root 3.62452 28.0791 -30.8638 10.6183 5.33403 -1.07649
lowerback 2.23054 1.11954 1.42911
upperback 3.01068 1.51816 -0.926027
thorax 1.90056 0.799699 -1.75777
lowerneck -1.85464 -1.41167 -3.79835
upperneck 16.9788 -2.22503 4.07574
head 5.49574 -1.03983 1.79375
rclavicle 9.93923e-016 -1.05356e-014
rhumerus -39.6736 -6.90759 -76.4694
rradius 33.2383
rwrist 4.73346
rhand -0.768273 -18.6551
rfingers 7.12502
rthumb 24.8543 -47.0595
lclavicle 9.93923e-016 -1.05356e-014
lhumerus -29.6366 -10.2895 71.6244
lradius 48.3104
lwrist 8.23819
lhand -11.2791 -18.0424
lfingers 7.12502
lthumb 14.7516 11.4127
rfemur -6.55967 -0.478666 22.3771
rtibia 14.6744
rfoot -20.1754 -9.12351
rtoes -26.3136
lfemur -20.3186 -6.08867 -13.2074
ltibia 15.8999
lfoot 5.3976 2.56101
ltoes 27.9206
277
root 3.62901 28.0654 -30.8305 10.6637 5.28319 -1.01405
lowerback 2.31321 1.24017 1.68953
upperback 2.96944 1.6825 -0.94919
thorax 1.82752 0.886365 -1.93059
lowerneck -1.72125 -1.4864 -3.96159
upperneck 16.957 -2.3165 4.07741
head 5.47205 -1.09488 1.81748
rclavicle -2.52457e-014 7.35503e-015
rhumerus -39.5759 -6.91188 -76.1702
rradius 32.7442
rwrist 4.63792
rhand -0.838856 -18.8715
rfingers 7.12502
rthumb 24.7867 -47.2853
lclavicle -2.52457e-014 7.35503e-015
lhumerus -29.9308 -10.1396 71.889
lradius 48.5124
lwrist 8.18365
lhand -11.3735 -18.2067
lfingers 7.12502
lthumb 14.6607 11.255
rfemur -6.54475 -0.6187 22.5726
rtibia 13.9982
rfoot -20.6064 -9.38522
rtoes -26.276
lfemur -20.5043 -5.88779 -12.9873
ltibia 15.675
lfoot 5.55322 2.68828
ltoes 29.4633
278
root 3.63126 28.0523 -30.8014 10.7375 5.26232 -0.912662
lowerback 2.41694 1.35174 1.89557
upperback 2.90182 1.83536 -0.992595
thorax 1.71549 0.965526 -2.09504
lowerneck -1.50408 -1.56861 -4.04488
upperneck 16.8767 -2.42255 4.05993
head 5.41554 -1.1544 1.82154
rclavicle 5.26779e-015 -3.37934e-015
rhumerus -39.4796 -6.96228 -75.8648
rradius 32.2267
rwrist 4.66847
rhand -0.810097 -19.1689
rfingers 7.12502
rthumb 24.8142 -47.5789
lclavicle 5.26779e-015 -3.37934e-015
lhumerus -30.2666 -10.0712 72.1356
lradius 48.734
lwrist 8.14469
lhand -11.4255 -18.3691
lfingers 7.12502
lthumb 14.6106 11.0963
rfemur -6.62188 -0.732925 22.7583
rtibia 13.4179
rfoot -21.0732 -9.82695
rtoes -25.866
lfemur -20.7718 -5.58251 -12.8462
ltibia 15.5765
lfoot 5.54369 2.51587
ltoes 30.4926
279
root 3.6311 28.0396 -30.7758 10.8456 5.24008 -0.764231
lowerback 2.52398 1.45411 2.0205
upperback 2.80211 1.97574 -1.05191
thorax 1.56688 1.036 -2.23149
lowerneck -1.17723 -1.64599 -4.06153
upperneck 16.7391 -2.52511 4.01608
head 5.32147 -1.21114 1.8073
rclavicle 3.13583e-014 7.85199e-015
rhumerus -39.4322 -7.00096 -75.5557
rradius 31.7396
rwrist 4.81218
rhand -0.640291 -19.5714
rfingers 7.12502
rthumb 24.9769 -47.9588
lclavicle 3.13583e-014 7.85199e-015
lhumerus -30.6568 -10.0613 72.3741
lradius 48.9688
lwrist 8.12766
lhand -11.4325 -18.5193
lfingers 7.12502
lthumb 14.6038 10.9466
rfemur -6.78588 -0.77312 22.9139
rtibia 12.9076
rfoot -21.579 -10.4537
rtoes -25.1438
lfemur -21.1099 -5.11483 -12.8054
ltibia 15.5691
lfoot 5.38566 2.03498
ltoes 30.5109
280
root 3.62876 28.0281 -30.7522 10.969 5.21972 -0.554972
lowerback 2.63205 1.4435 1.9528
upperback 2.84911 1.96208 -1.0292
thorax 1.55072 1.02799 -2.17245
lowerneck -1.40238 -1.64053 -4.24718
upperneck 16.7136 -2.48476 3.93237
head 5.35202 -1.20549 1.8122
rclavicle -4.32357e-015 4.07509e-015
rhumerus -38.9319 -6.7607 -75.2815
rradius 31.2045
rwrist 5.05094
rhand -0.375378 -20.0378
rfingers 7.12502
rthumb 25.2308 -48.3897
lclavicle -4.32357e-015 4.07509e-015
lhumerus -30.8385 -9.62129 72.603
lradius 49.1641
lwrist 8.07544
lhand -11.4096 -18.6471
lfingers 7.12502
lthumb 14.6259 10.8172
rfemur -6.99103 -0.721895 23.011
rtibia 12.431
rfoot -22.113 -11.2537
rtoes -24.1171
lfemur -21.4707 -4.45513 -12.8957
ltibia 15.591
lfoot 5.13742 1.2808
ltoes 29.2748
281
root 3.62512 28.0181 -30.7299 11.102 5.19753 -0.280744
lowerback 2.74791 1.41342 1.79544
upperback 2.88887 1.92131 -1.02311
thorax 1.51883 1.00471 -2.08025
lowerneck -1.62185 -1.61498 -4.41138
upperneck 16.6925 -2.41651 3.83809
head 5.38139 -1.18587 1.81178
rclavicle -1.05604e-014 3.77691e-015
rhumerus -38.4413 -6.51797 -75.0131
rradius 30.6999
rwrist 5.41931
rhand -0.0900011 -20.5342
rfingers 7.12502
rthumb 25.5042 -48.8473
lclavicle -1.05604e-014 3.77691e-015
lhumerus -31.0286 -9.20033 72.823
lradius 49.3487
lwrist 8.01958
lhand -11.3608 -18.7453
lfingers 7.12502
lthumb 14.6729 10.7156
rfemur -7.21957 -0.587094 23.0248
rtibia 11.9769
rfoot -22.6473 -12.1696
rtoes -22.7586
lfemur -21.8357 -3.63147 -13.1273
ltibia 15.6128
lfoot 4.8171 0.345997
ltoes 27.2816
282
root 3.62082 28.0102 -30.7076 11.2261 5.17847 0.0572729
lowerback 2.88074 1.37333 1.57875
upperback 2.92349 1.86642 -1.04999
thorax 1.47089 0.973482 -1.98894
lowerneck -1.82387 -1.58055 -4.55061
upperneck 16.6783 -2.33997 3.75719
head 5.40936 -1.16018 1.81208
rclavicle 3.28616e-014 -2.63887e-014
rhumerus -37.9813 -6.34706 -74.7517
rradius 30.2292
rwrist 5.91615
rhand 0.135907 -20.9504
rfingers 7.12502
rthumb 25.7205 -49.2323
lclavicle 3.28616e-014 -2.63887e-014
lhumerus -31.2103 -8.86037 73.0206
lradius 49.4924
lwrist 7.9715
lhand -11.2789 -18.8616
lfingers 7.12502
lthumb 14.7518 10.5935
rfemur -7.43224 -0.380986 22.9394
rtibia 11.5253
rfoot -23.1496 -13.154
rtoes -21.1535
lfemur -22.1765 -2.71302 -13.4952
ltibia 15.6315
lfoot 4.43348 -0.677818
ltoes 25.2915
283
root 3.61695 28.0051 -30.6844 11.3267 5.16767 0.437991
lowerback 3.04039 1.3385 1.35781
upperback 2.93591 1.81846 -1.12241
thorax 1.38726 0.945711 -1.94295
lowerneck -1.932 -1.55243 -4.64263
upperneck 16.658 -2.28228 3.70291
head 5.4198 -1.14004 1.81261
rclavicle 1.37907e-014 5.56597e-015
rhumerus -37.6126 -6.30815 -74.4977
rradius 29.8009
rwrist 6.48963
rhand 0.233875 -21.2062
rfingers 7.12502
rthumb 25.8144 -49.4746
lclavicle 1.37907e-014 5.56597e-015
lhumerus -31.4022 -8.68538 73.196
lradius 49.5747
lwrist 7.94527
lhand -11.1657 -19.0286
lfingers 7.12502
lthumb 14.8609 10.4185
rfemur -7.60965 -0.12008 22.7637
rtibia 11.0719
rfoot -23.5827 -14.1653
rtoes -19.4407
lfemur -22.4831 -1.7895 -13.9659
ltibia 15.6644
lfoot 4.00576 -1.70603
ltoes 23.7094
